<svg fill="none" height="42" viewBox="0 0 41 42" width="41" xmlns="http://www.w3.org/2000/svg">
  <path
    d="M31.958 17.78c.32.284.623.586.906.907l3.415.487c.554.965.981 1.997 1.27 3.07l-2.068 2.76s.026.854 0 1.281l2.07 2.76a12.92 12.92 0 01-1.273 3.07l-3.414.487s-.586.623-.906.906l-.488 3.416c-.964.554-1.996.98-3.07 1.27l-2.759-2.069c-.427.026-.855.026-1.282 0l-2.76 2.07a12.921 12.921 0 01-3.069-1.273l-.488-3.413c-.32-.284-.623-.587-.906-.907l-3.415-.488a12.922 12.922 0 01-1.27-3.07l2.069-2.759s-.027-.855 0-1.282l-2.07-2.76c.29-1.073.717-2.104 1.272-3.069l3.414-.487c.283-.32.586-.623.906-.907l.488-3.415c.964-.554 1.996-.98 3.07-1.27l2.759 2.069c.427-.026.855-.026 1.282 0l2.76-2.07c1.073.29 2.105.718 3.069 1.272l.488 3.414z"
    fill="#CDD7DB"/>
  <path d="M25 30.644a5 5 0 100-10 5 5 0 000 10z" fill="#fff"/>
  <g>
    <path
      d="M15.342 6.533c.21.23.402.477.574.737l2.056.79a7.711 7.711 0 01.458 3.238l-1.76 1.327a6.225 6.225 0 01-.35.867l.343 2.175a7.712 7.712 0 01-2.575 2.015l-2.03-.86c-.304.067-.614.11-.925.13L9.42 18.337a7.711 7.711 0 01-3.032-1.223l-.27-2.187a6.227 6.227 0 01-.575-.737l-2.056-.79a7.71 7.71 0 01-.457-3.238l1.759-1.328c.095-.297.212-.586.35-.866l-.342-2.176a7.71 7.71 0 012.575-2.015l2.029.86c.305-.066.614-.11.925-.13l1.713-1.384a7.71 7.71 0 013.033 1.223l.27 2.187z"
      fill="#CDD7DB"/>
    <path d="M10.923 13.659a2.856 2.856 0 10-.795-5.656 2.856 2.856 0 00.795 5.656z" fill="#fff"/>
  </g>
</svg>
